<svg xmlns="http://www.w3.org/2000/svg" width="512" height="512" viewBox="0 0 512 512" role="img" aria-labelledby="title">
  <title id="title">Quasimorph Wiki Q mark</title>
  <rect width="512" height="512" rx="72" fill="#65d7e7"/>
  <path fill="#071116" d="M256 96c-82.8 0-140 59-140 160s57.2 160 140 160c25.5 0 48.1-5.6 67.1-16.1L364 440l48-49-40.4-39.4C387.5 326.8 396 294.6 396 256c0-101-57.2-160-140-160Zm0 72c37.1 0 60 28.3 60 88 0 15.2-1.5 28.1-4.4 38.9l-30.8-30.1-48 49 27.5 26.8-4.3.4c-37.1 0-60-28.3-60-88s22.9-88 60-88Z"/>
</svg>
